<?xml version="1.0" encoding="utf-8"?>
<!-- Generator: Adobe Illustrator 26.5.0, SVG Export Plug-In . SVG Version: 6.00 Build 0)  -->
<svg version="1.1" id="Layer_1" xmlns="http://www.w3.org/2000/svg" xmlns:xlink="http://www.w3.org/1999/xlink" x="0px" y="0px"
	 viewBox="0 0 800 1522.1" style="enable-background:new 0 0 800 1522.1;" xml:space="preserve">
<style type="text/css">
	.st0{fill:none;stroke:#262324;stroke-miterlimit:10;}
	.st1{fill:#262324;}
	.st2{fill:none;}
	.st3{fill:#251E1C;}
	.st4{font-family:'Roboto-Regular';}
	.st5{font-size:24px;}
	.st6{font-family:'Roboto-Bold';}
</style>
<g>
	<g>
		<line class="st0" x1="36.2" y1="771.3" x2="278.3" y2="369.3"/>
		<g>
			<path class="st1" d="M31.6,779c3.6-2.8,8.6-6,12.7-7.3l-7.4-1.5l-4.8-5.9C32.8,768.7,32.4,774.6,31.6,779z"/>
		</g>
		<g>
			<path class="st1" d="M282.9,361.5c-0.8,4.5-1.3,10.4-0.5,14.7l-4.8-5.9l-7.4-1.5C274.3,367.5,279.4,364.4,282.9,361.5z"/>
		</g>
	</g>
</g>
<rect x="30.5" y="286.7" class="st2" width="226.4" height="338.3"/>
<text transform="matrix(1 0 0 1 30.4558 304.979)"><tspan x="0" y="0" class="st3 st4 st5">Standard </tspan><tspan x="0" y="28.8" class="st3 st4 st5">measurements of </tspan><tspan x="0" y="57.6" class="st3 st4 st5">the culmen (from the </tspan><tspan x="0" y="86.4" class="st3 st4 st5">distal tip of the bill </tspan><tspan x="0" y="115.2" class="st3 st4 st5">to the feather line):</tspan></text>
<g>
	<rect x="259.9" y="810" class="st2" width="174.8" height="153.1"/>
	<text transform="matrix(1 0 0 1 259.9053 828.2832)"><tspan x="0" y="0" class="st3 st4 st5">The neck is </tspan><tspan x="0" y="28.8" class="st3 st4 st5">black till it </tspan><tspan x="0" y="57.6" class="st3 st4 st5">reaches the </tspan><tspan x="0" y="86.4" class="st3 st4 st5">head</tspan></text>
</g>
<g>
	<rect x="259.9" y="1019.5" class="st2" width="174.8" height="153.1"/>
	<text transform="matrix(1 0 0 1 259.9053 1037.7896)"><tspan x="0" y="0" class="st3 st4 st5">Females have </tspan><tspan x="0" y="28.8" class="st3 st4 st5">lighter fur on </tspan><tspan x="0" y="57.6" class="st3 st4 st5">the neck</tspan></text>
</g>
<path class="st0" d="M396.8-11.8c0,0-10.1,53.7,20.2,107.5"/>
<g>
	<text transform="matrix(1 0 0 1 260.5613 635.2192)" class="st3 st4 st5">Mandible</text>
</g>
<g>
	<text transform="matrix(1 0 0 1 269.4255 436.3432)"><tspan x="0" y="0" class="st3 st4 st5">Nasal</tspan><tspan x="0" y="28.8" class="st3 st4 st5">aperture</tspan></text>
</g>
<image style="overflow:visible;" width="789" height="1470" xlink:href="46CA7AE989119B3C.png"  transform="matrix(1 0 0 1 20.4509 17.1782)">
</image>
<g>
	<rect x="620.2" y="40.2" class="st2" width="162.7" height="145"/>
	<text transform="matrix(1 0 0 1 620.1774 58.4595)"><tspan x="0" y="0" class="st3 st4 st5">Red crowned </tspan><tspan x="0" y="28.8" class="st3 st4 st5">cranes have </tspan><tspan x="0" y="57.6" class="st3 st4 st5">small, round, </tspan><tspan x="0" y="86.4" class="st3 st4 st5">and dark eyes.</tspan></text>
</g>
<path class="st0" d="M524,241.7c108,7,151.8-66.7,151.8-66.7"/>
<text transform="matrix(1 0 0 1 32.5673 548.4714)"><tspan x="0" y="0" class="st3 st6 st5">13.5 to</tspan><tspan x="0" y="28.8" class="st3 st6 st5">17.7 cm</tspan></text>
</svg>
