<?xml version="1.0" encoding="utf-8"?>
<!-- Generator: Adobe Illustrator 26.5.0, SVG Export Plug-In . SVG Version: 6.00 Build 0)  -->
<svg version="1.1" id="Layer_1" xmlns="http://www.w3.org/2000/svg" xmlns:xlink="http://www.w3.org/1999/xlink" x="0px" y="0px"
	 viewBox="0 0 800 4600" style="enable-background:new 0 0 800 4600;" xml:space="preserve">
<style type="text/css">
	.st0{fill:none;}
	.st1{fill:#251E1C;}
	.st2{font-family:'Roboto-Regular';}
	.st3{font-size:24px;}
</style>
<image style="overflow:visible;" width="475" height="1038" xlink:href="59C076FD1C54A85F.png"  transform="matrix(1 0 0 1 217 3493.0552)">
</image>
<image style="overflow:visible;" width="527" height="725" xlink:href="59C076FD1C54A854.png"  transform="matrix(1 0 0 1 133 2716.0552)">
</image>
<image style="overflow:visible;" width="459" height="587" xlink:href="59C076FD1C54A855.png"  transform="matrix(1 0 0 1 342 617.0552)">
</image>
<image style="overflow:visible;" width="800" height="543" xlink:href="59C076FD1C54A856.png"  transform="matrix(1 0 0 1 0 6.0553)">
</image>
<image style="overflow:visible;" width="801" height="429" xlink:href="59C076FD1C54A857.png"  transform="matrix(1 0 0 1 1 1296.0553)">
</image>
<image style="overflow:visible;" width="349" height="587" xlink:href="59C076FD1C54A867.png"  transform="matrix(1 0 0 1 1 617.0552)">
</image>
<g>
	
		<image style="overflow:visible;" width="389" height="402" xlink:href="59C076FD1C54A868.png"  transform="matrix(1 0 0 1 -30 1752.0526)">
	</image>
</g>
<image style="overflow:visible;" width="801" height="825" xlink:href="59C076FD1C54A86B.png"  transform="matrix(1 0 0 1 0 1776.0553)">
</image>
<g>
	<rect x="5.2" y="1216.6" class="st0" width="364" height="84.9"/>
	<text transform="matrix(1 0 0 1 5.2114 1234.8359)"><tspan x="0" y="0" class="st1 st2 st3">Snow Plums and Twin Cranes, by </tspan><tspan x="0" y="28.8" class="st1 st2 st3">Bian Jingzhao, early 15th century</tspan></text>
</g>
<g>
	<rect x="385.5" y="1216.6" class="st0" width="416.5" height="84.9"/>
	<text transform="matrix(1 0 0 1 385.4927 1234.8359)"><tspan x="0" y="0" class="st1 st2 st3">Bamboo and Cranes, by Bian </tspan><tspan x="0" y="28.8" class="st1 st2 st3">Jingzhao, early 15th century</tspan></text>
</g>
<g>
	<rect x="8.8" y="558.9" class="st0" width="799.2" height="131.6"/>
	<text transform="matrix(1 0 0 1 8.8005 577.204)" class="st1 st2 st3">Four Immortals Saluting Longevity, by Shang Xi, early 15th century</text>
</g>
<g>
	<rect x="1.2" y="1734" class="st0" width="800.8" height="52.5"/>
	<text transform="matrix(1 0 0 1 1.1929 1752.2505)" class="st1 st2 st3">Rank Badge with Crane, early Qing Dynasty (17th-18th century).</text>
</g>
<g>
	<rect x="1.2" y="2612" class="st0" width="800.8" height="52.5"/>
	<text transform="matrix(1 0 0 1 1.1929 2630.2502)" class="st1 st2 st3">Xiangu, the Immortal, by Zhang Lu,  late 15th to early 16th century</text>
</g>
<g>
	<rect x="6.9" y="4158.5" class="st0" width="193.1" height="170.3"/>
	<text transform="matrix(1 0 0 1 6.9478 4176.7993)"><tspan x="0" y="0" class="st1 st2 st3">Crane and </tspan><tspan x="0" y="28.8" class="st1 st2 st3">Tortoise, from the </tspan><tspan x="0" y="57.6" class="st1 st2 st3">Mausoleum of </tspan><tspan x="0" y="86.4" class="st1 st2 st3">Jingdi   Emperor </tspan><tspan x="0" y="115.2" class="st1 st2 st3">of Han Dynasty, </tspan><tspan x="0" y="144" class="st1 st2 st3">2nd century BC</tspan></text>
</g>
<g>
	<rect x="6.9" y="2721.8" class="st0" width="213.1" height="186.7"/>
	<text transform="matrix(1 0 0 1 6.9482 2740.0481)"><tspan x="0" y="0" class="st1 st2 st3">Silver Silk Covered </tspan><tspan x="0" y="28.8" class="st1 st2 st3">Jar with Pine and </tspan><tspan x="0" y="57.6" class="st1 st2 st3">Crane Patterns, </tspan><tspan x="0" y="86.4" class="st1 st2 st3">around early 20th </tspan><tspan x="0" y="115.2" class="st1 st2 st3">century</tspan></text>
</g>
</svg>
