<?xml version="1.0" encoding="utf-8"?>
<!-- Generator: Adobe Illustrator 26.5.0, SVG Export Plug-In . SVG Version: 6.00 Build 0)  -->
<svg version="1.1" id="Layer_1" xmlns="http://www.w3.org/2000/svg" xmlns:xlink="http://www.w3.org/1999/xlink" x="0px" y="0px"
	 viewBox="0 0 800 1108" style="enable-background:new 0 0 800 1108;" xml:space="preserve">
<style type="text/css">
	.st0{fill:none;}
	.st1{fill:#251E1C;}
	.st2{font-family:'Roboto-Regular';}
	.st3{font-size:20px;}
	.st4{fill:none;stroke:#589CD6;stroke-width:1.5;stroke-miterlimit:10;}
	.st5{fill:#589CD6;}
</style>
<image style="overflow:visible;" width="782" height="957" xlink:href="702E893DA4895BC1.png"  transform="matrix(1 0 0 1 13.1831 87.4082)">
</image>
<g>
	<rect x="402.2" y="21.1" class="st0" width="263.3" height="116.5"/>
	<text transform="matrix(1 0 0 1 402.2031 36.291)"><tspan x="0" y="0" class="st1 st2 st3">The entire body of the red </tspan><tspan x="0" y="24" class="st1 st2 st3">crowned crane is snow </tspan><tspan x="0" y="48" class="st1 st2 st3">white.</tspan></text>
</g>
<rect x="48.9" y="21.1" class="st0" width="262.1" height="106.3"/>
<text transform="matrix(1 0 0 1 111.5224 36.291)"><tspan x="0" y="0" class="st1 st2 st3">They can reach</tspan><tspan x="-49.8" y="24" class="st1 st2 st3">1.5 meters tall, considered </tspan><tspan x="21.7" y="48" class="st1 st2 st3">big cranes</tspan></text>
<g>
	<rect x="506.3" y="673.1" class="st0" width="276" height="145.7"/>
	<text transform="matrix(1 0 0 1 506.2625 688.3096)"><tspan x="0" y="0" class="st1 st2 st3">The black inner feathers </tspan><tspan x="0" y="24" class="st1 st2 st3">coverd the short and white tail </tspan><tspan x="0" y="48" class="st1 st2 st3">when the wings are folded. </tspan></text>
</g>
<g>
	<rect x="9.9" y="709.4" class="st0" width="174.4" height="164.7"/>
	<text transform="matrix(1 0 0 1 9.8574 724.655)"><tspan x="0" y="0" class="st1 st2 st3">These cranes have </tspan><tspan x="0" y="24" class="st1 st2 st3">long and thin legs, </tspan><tspan x="0" y="48" class="st1 st2 st3">with pointy fingers.</tspan></text>
</g>
<g>
	<rect x="9.9" y="1026.3" class="st0" width="288.3" height="182.9"/>
	<text transform="matrix(1 0 0 1 9.8579 1041.5044)"><tspan x="0" y="0" class="st1 st2 st3">Long and separated toes give </tspan><tspan x="0" y="24" class="st1 st2 st3">them balance</tspan></text>
</g>
<g>
	<rect x="506.3" y="979.8" class="st0" width="260" height="128.2"/>
	<text transform="matrix(1 0 0 1 506.2627 995.0447)"><tspan x="0" y="0" class="st1 st2 st3">The young crane start to </tspan><tspan x="0" y="24" class="st1 st2 st3">follow their parents as they </tspan><tspan x="0" y="48" class="st1 st2 st3">forage in marches around 3 </tspan><tspan x="0" y="72" class="st1 st2 st3">months of age.</tspan></text>
</g>
<g>
	<text transform="matrix(1 0 0 1 402.2019 190.1816)"><tspan x="0" y="0" class="st1 st2 st3">The wingspan measures</tspan><tspan x="0" y="24" class="st1 st2 st3">220 to 250 cm</tspan></text>
</g>
<g>
	<g>
		<line class="st4" x1="378.2" y1="253.2" x2="751.9" y2="253.2"/>
		<g>
			<path class="st5" d="M765.5,253.2c-6.4,2.4-14.3,6.4-19.2,10.7l3.9-10.7l-3.9-10.7C751.2,246.8,759.1,250.9,765.5,253.2z"/>
		</g>
	</g>
</g>
<line class="st4" x1="257.5" y1="253.2" x2="323.9" y2="253.2"/>
<line class="st4" x1="7.8" y1="253.2" x2="210.5" y2="253.2"/>
<g>
	<text transform="matrix(1 0 0 1 9.8569 591.0002)" class="st1 st2 st3">White short tail</text>
</g>
<g>
	<g>
		<line class="st4" x1="194.3" y1="170.2" x2="194.3" y2="117.8"/>
		<g>
			<rect x="187" y="116.7" class="st5" width="14.6" height="2.2"/>
		</g>
	</g>
</g>
<g>
	<path class="st0" d="M194.3,165.8"/>
</g>
<line class="st4" x1="194.3" y1="248.2" x2="194.3" y2="206"/>
<line class="st4" x1="194.3" y1="849.8" x2="194.3" y2="256.5"/>
</svg>
