<?xml version="1.0" encoding="utf-8"?>
<!-- Generator: Adobe Illustrator 26.5.0, SVG Export Plug-In . SVG Version: 6.00 Build 0)  -->
<svg version="1.1" id="Layer_1" xmlns="http://www.w3.org/2000/svg" xmlns:xlink="http://www.w3.org/1999/xlink" x="0px" y="0px"
	 viewBox="0 0 800 346.9" style="enable-background:new 0 0 800 346.9;" xml:space="preserve">
<style type="text/css">
	@import url('https://fonts.googleapis.com/css?family=Roboto:300,400,700');
	.st0{opacity:0;}
	.st1{fill:#D15932;}
	.st2{opacity:0.1667;}
	.st3{opacity:0.3333;}
	.st4{opacity:0.5;}
	.st5{opacity:0.6667;}
	.st6{opacity:0.8333;}
	.st7{fill:#251E1C;}
	.st8{font-family:'Roboto';font-weight: 300;}
	.st9{font-size:22px;}
	.st10{font-family:'Roboto';font-weight: 700;}
	.st11{font-size:24px;}
</style>
<g>
	<g class="st0">
		<polygon class="st1" points="517,277.4 533.1,277.4 525.1,285.5 		"/>
	</g>
	<g class="st2">
		<polygon class="st1" points="517,285.6 533.1,285.6 525.1,293.6 		"/>
	</g>
	<g class="st3">
		<polygon class="st1" points="517,293.8 533.1,293.8 525.1,301.8 		"/>
	</g>
	<g class="st4">
		<polygon class="st1" points="517,301.9 533.1,301.9 525.1,310 		"/>
	</g>
	<g class="st5">
		<polygon class="st1" points="517,310.1 533.1,310.1 525.1,318.1 		"/>
	</g>
	<g class="st6">
		<polygon class="st1" points="517,318.3 533.1,318.3 525.1,326.3 		"/>
	</g>
	<polygon class="st1" points="517,326.4 533.1,326.4 525.1,334.4 	"/>
</g>
<image style="overflow:visible;enable-background:new    ;" width="777" height="167" xlink:href="BD1958637BB6B3D.png"  transform="matrix(0.9985 0 0 0.9985 19.4203 50.4164)">
</image>
<g>
	<text transform="matrix(1 0 0 1 263.2441 239.5921)" class="st7 st8 st9">Common</text>
	<text transform="matrix(1 0 0 1 277.3441 263.5921)" class="st7 st8 st9">crane</text>
</g>
<g>
	<text transform="matrix(1 0 0 1 612.8086 294.5921)" class="st7 st8 st9">Whooping</text>
	<text transform="matrix(1 0 0 1 630.9086 318.5921)" class="st7 st8 st9">crane</text>
</g>
<g>
	<text transform="matrix(1 0 0 1 104.1504 239.5921)" class="st7 st8 st9">Hooded</text>
	<text transform="matrix(1 0 0 1 113.0504 263.5921)" class="st7 st8 st9">crane</text>
</g>
<g>
	<text transform="matrix(1 0 0 1 351.1074 294.5921)" class="st7 st8 st9">Black-necked</text>
	<text transform="matrix(1 0 0 1 383.8074 318.5921)" class="st7 st8 st9">crane</text>
</g>
<g>
	<text transform="matrix(1 0 0 1 719.7461 239.5921)" class="st7 st8 st9">Wattled</text>
	<text transform="matrix(1 0 0 1 727.9461 263.5921)" class="st7 st8 st9">crane</text>
</g>
<g>
	<text transform="matrix(1 0 0 1 203.1758 294.5921)" class="st7 st8 st9">Blue</text>
	<text transform="matrix(1 0 0 1 198.3758 318.5921)" class="st7 st8 st9">crane</text>
</g>
<g>
	<text transform="matrix(1 0 0 1 3.7803 294.5921)" class="st7 st8 st9">Demoiselle</text>
	<text transform="matrix(1 0 0 1 25.8803 318.5921)" class="st7 st8 st9">crane</text>
</g>
<g>
	<text transform="matrix(1 0 0 1 461.2695 239.5921)" class="st7 st10 st11">Red-crowned</text>
	<text transform="matrix(1 0 0 1 495.8695 263.5921)" class="st7 st10 st11">crane</text>
</g>
<g>
	<text transform="matrix(1 0 0 1 14.0967 132.2923)" class="st7 st8 st9">76 cm</text>
</g>
<g>
	<text transform="matrix(1 0 0 1 173.7021 91.5011)" class="st7 st8 st9">120 cm</text>
</g>
<g>
	<text transform="matrix(1 0 0 1 696.6289 35.0519)" class="st7 st8 st9">175 cm</text>
</g>
<g>
	<text transform="matrix(1 0 0 1 350.8994 76.5111)" class="st7 st8 st9">139 cm</text>
</g>
<g>
	<text transform="matrix(1 0 0 1 599.1328 59.9947)" class="st7 st8 st9">160 cm</text>
</g>
<g>
	<text transform="matrix(1 0 0 1 85.9014 106.5919)" class="st7 st8 st9">100 cm</text>
</g>
<g>
	<text transform="matrix(1 0 0 1 262.7148 85.5865)" class="st7 st8 st9">130 cm</text>
</g>
<g>
	<text transform="matrix(1 0 0 1 499.1162 69.8275)" class="st7 st10 st11">150 cm</text>
</g>
</svg>
