<?xml version="1.0" encoding="utf-8"?>
<!-- Generator: Adobe Illustrator 26.5.0, SVG Export Plug-In . SVG Version: 6.00 Build 0)  -->
<svg version="1.1" id="Layer_1" xmlns="http://www.w3.org/2000/svg" xmlns:xlink="http://www.w3.org/1999/xlink" x="0px" y="0px"
	 viewBox="0 0 800 1216.1" style="enable-background:new 0 0 800 1216.1;" xml:space="preserve">
<style type="text/css">
	@import url('https://fonts.googleapis.com/css?family=Roboto:300,400,700');
	.st0{fill:none;}
	.st1{fill:#251E1C;}
	.st2{font-family:'Roboto';font-weight: 300;}
	.st3{font-size:26px;}
	.st4{fill:none;stroke:#589CD6;stroke-width:1.5;stroke-miterlimit:10;}
	.st5{fill:#589CD6;}
	.st6{fill:#FCFBFA;}
	.st7{fill:#252428;}
</style>
<image style="overflow:visible;" width="782" height="957" xlink:href="702E893DA4895BC1.png"  transform="matrix(1 0 0 1 9.1831 155.4677)">
</image>
<g>
	<rect x="402.2" y="75.1" class="st0" width="263.3" height="116.5"/>
	<text transform="matrix(1 0 0 1 402.2031 94.9208)"><tspan x="0" y="0" class="st1 st2 st3">The entire body of the </tspan><tspan x="0" y="31.2" class="st1 st2 st3">red crowned crane is </tspan><tspan x="0" y="62.4" class="st1 st2 st3">snow white.</tspan></text>
</g>
<rect x="48.9" y="75.1" class="st0" width="262.1" height="106.3"/>
<text transform="matrix(1 0 0 1 90.9814 94.9208)"><tspan x="0" y="0" class="st1 st2 st3">They can reach</tspan><tspan x="3.1" y="31.2" class="st1 st2 st3">1.5 meters tall, </tspan><tspan x="-39.6" y="62.4" class="st1 st2 st3">considered big cranes</tspan></text>
<g>
	<rect x="490.8" y="727.1" class="st0" width="284.5" height="145.7"/>
	<text transform="matrix(1 0 0 1 490.7852 746.9396)"><tspan x="0" y="0" class="st1 st2 st3">The black inner feathers </tspan><tspan x="0" y="31.2" class="st1 st2 st3">coverd the short and </tspan><tspan x="0" y="62.4" class="st1 st2 st3">white tail when the </tspan><tspan x="0" y="93.6" class="st1 st2 st3">wings are folded. </tspan></text>
</g>
<g>
	<rect x="9.9" y="763.5" class="st0" width="174.4" height="164.7"/>
	<text transform="matrix(1 0 0 1 9.8574 783.2848)"><tspan x="0" y="0" class="st1 st2 st3">These cranes </tspan><tspan x="0" y="31.2" class="st1 st2 st3">have long and </tspan><tspan x="0" y="62.4" class="st1 st2 st3">thin legs, with </tspan><tspan x="0" y="93.6" class="st1 st2 st3">pointy fingers.</tspan></text>
</g>
<g>
	<rect x="9.9" y="1080.3" class="st0" width="288.3" height="182.9"/>
	<text transform="matrix(1 0 0 1 9.8579 1100.1342)"><tspan x="0" y="0" class="st1 st2 st3">Long and separated </tspan><tspan x="0" y="31.2" class="st1 st2 st3">toes give them balance</tspan></text>
</g>
<g>
	<rect x="490.8" y="1080.3" class="st0" width="300" height="131.8"/>
	<text transform="matrix(1 0 0 1 490.7861 1100.1339)"><tspan x="0" y="0" class="st1 st2 st3">The young crane start to </tspan><tspan x="0" y="31.2" class="st1 st2 st3">follow their parents as </tspan><tspan x="0" y="62.4" class="st1 st2 st3">they forage in marches </tspan><tspan x="0" y="93.6" class="st1 st2 st3">around 3 months of age.</tspan></text>
</g>
<g>
	<text transform="matrix(1 0 0 1 402.2019 244.2411)"><tspan x="0" y="0" class="st1 st2 st3">The wingspan measures</tspan><tspan x="0" y="31.2" class="st1 st2 st3">220 to 250 cm</tspan></text>
</g>
<g>
	<g>
		<line class="st4" x1="378.2" y1="307.3" x2="751.9" y2="307.3"/>
		<g>
			<path class="st5" d="M765.5,307.3c-6.4,2.4-14.3,6.4-19.2,10.7l3.9-10.7l-3.9-10.7C751.2,300.9,759.1,304.9,765.5,307.3z"/>
		</g>
	</g>
</g>
<line class="st4" x1="257.5" y1="307.3" x2="323.9" y2="307.3"/>
<line class="st4" x1="7.8" y1="307.3" x2="210.5" y2="307.3"/>
<g>
	<text transform="matrix(1 0 0 1 9.8569 685.0597)" class="st1 st2 st3">White short tail</text>
</g>
<g>
	<g>
		<line class="st4" x1="194.3" y1="224.3" x2="194.3" y2="171.9"/>
		<g>
			<rect x="187" y="170.8" class="st5" width="14.6" height="2.2"/>
		</g>
	</g>
</g>
<g>
	<path class="st0" d="M194.3,219.9"/>
</g>
<line class="st4" x1="194.3" y1="302.3" x2="194.3" y2="260"/>
<line class="st4" x1="194.3" y1="903.9" x2="194.3" y2="310.6"/>
<circle class="st6" cx="364" cy="87.5" r="24.8"/>
<circle class="st7" cx="745.3" cy="685.1" r="24.8"/>
</svg>
