<?xml version="1.0" encoding="utf-8"?>
<!-- Generator: Adobe Illustrator 26.5.0, SVG Export Plug-In . SVG Version: 6.00 Build 0)  -->
<svg version="1.1" id="Layer_1" xmlns="http://www.w3.org/2000/svg" xmlns:xlink="http://www.w3.org/1999/xlink" x="0px" y="0px"
	 viewBox="0 0 800 944" style="enable-background:new 0 0 800 944;" xml:space="preserve">
<style type="text/css">
	.st0{opacity:0.6;}
	.st1{fill:#8E9352;}
	.st2{fill:#B98042;}
	.st3{fill:#6A2C1D;}
	.st4{fill:none;stroke:#5CA256;stroke-width:4;stroke-miterlimit:10;}
	.st5{fill:#5CA256;}
	.st6{fill:#251E1C;}
	.st7{font-family:'Roboto-Regular';}
	.st8{font-size:24px;}
	.st9{letter-spacing:4;}
	.st10{font-family:'Roboto-Bold';}
	.st11{font-size:22px;}
	.st12{font-size:26px;}
	.st13{letter-spacing:5;}
	.st14{fill:none;stroke:#262324;stroke-miterlimit:10;}
	.st15{fill:none;stroke:#262324;stroke-width:2;stroke-miterlimit:10;}
	.st16{fill:none;}
</style>
<image style="overflow:visible;" width="804" height="934" xlink:href="C380ACE46E189D5E.png"  transform="matrix(1 0 0 1 -1 15.6022)">
</image>
<g class="st0">
	<path class="st1" d="M320.7,210.2c-4.9,3.5-10.1,7.8-16.1,7.3c-2.1-6.5,1.9-13.5,6.8-18.3c4.9-4.8,10.9-8.7,14.5-14.5
		c2.8-4.5,3.9-9.9,3.2-15.1c-0.2-1.4-0.6-2.8-1.5-3.7c-1.6-1.6-4.4-1.3-6.3,0.1s-2.9,3.5-4,5.5c-3.9,7.7-7.8,15.4-11.8,23.2
		c-4.6,9.1-9.3,18.3-11.5,28.3c-2.4,11.2-1.6,23,2.4,33.7c1.5,3.9,3.5,7.9,7,10.2c4.7,3.1,11,2.5,16.5,0.9c6.3,0.8,12.7,1.6,19,2.4
		c3.1,0.4,6.3,0.8,9.3,1.8c4.2,1.4,8.1,3.8,12.4,4.8s9.6,0,11.8-3.9c1.2-2.1,0.5-5.6-1.9-5.8c-1-0.1-1.9,0.4-2.9,0.5
		c-4.3,0.6-6-5.3-6.9-9.6c-0.2-1.1-0.6-2.3-1.5-2.9c-1.1-0.7-2.6-0.3-4-0.2c-4.2,0.3-8.3-3-8.9-7.2c-1.4,3.2-2.9,6.6-5.7,8.8
		c-2.8,2.2-7.2,2.8-9.7,0.2c-3.3-3.4-1.1-9.3-3.3-13.4c-3.7-7-15.7-3.6-21-9.6c5.5-4.1,24.6-14,26.6-20.5
		C336.8,202.8,326.5,206,320.7,210.2z"/>
	<path class="st1" d="M453.5,349.4c-0.8,0.8-1.6,1.5-2.7,1.9c-2.3,0.8-4.8-0.7-6.8-2.2c-5.4-3.9-10.8-7.8-16.2-11.8
		c-4-2.9-8.4-7.6-6.1-11.9c3.1-5.8,14-2.1,17.4-7.8c1.3-2.1,0.9-4.8,1.3-7.3c1.3-8.2,10.4-12.4,18.2-15.1c0.8-0.3,1.8-0.5,2.4,0.1
		c0.5,0.5,0.4,1.2,0.4,1.9c-0.1,4,1.4,8,4.1,11c1,1,2.2,2.1,2.4,3.5c0.2,1.4-0.5,2.7-1.1,4.1c-2.5,6.4,1.4,13.1-0.5,19.4
		C464.5,341.3,458.2,345,453.5,349.4z"/>
	<path class="st1" d="M430.9,253.6c-2.6,3.1-7.4,6.4-9.8,3.2c1.5,7.6,1.9,15.4,1.2,23c-0.1,0.8-0.2,1.7-0.6,2.4
		c-1.8,2.9-6.2,0.5-8.5-2c0.7-2.1,1.3-4.1,2-6.2c-3.9-3.2-9.7-0.9-14.1,1.6c-0.9,4.7-1.9,9.6-5,13.4c-3,3.7-8.8,5.7-12.8,3
		c-3.8-2.6-4.9-8.4-9.2-10.1c4.5,3.6,6.2,10.3,4,15.7c3.7-0.3,3.9,5.6,6.8,8c2.3,1.9,5.7,1,8.5,0c8.2-3,16.4-5.9,24.6-8.9
		c1.5-0.6,3.3-1.3,3.9-2.8c0.6-1.5-0.1-3.2,0.1-4.8c0.3-1.8,1.9-3.1,3.4-4.2c11.7-8.8,23.4-17.6,35.1-26.4c1.3-0.9,2.2-8.1,3.5-10.2
		c2.7-4.1,6.7-5.2,9.7-8.6c3.3-3.7,10.3-11.7,3-15.7C465.5,217.7,437.1,246.3,430.9,253.6z"/>
	<path class="st1" d="M476.3,243.3c-0.4,2.3,0.1,4.6,0.1,6.9c0,8-6.1,15.6-13.9,17.5c-0.2,5,3.6,9.9,8.5,11
		c4.9,1.1,10.4-1.7,12.4-6.3c1.4-3.3,0.3-8.2-3.3-8.6c-1.6-0.2-3.9,0.3-4.4-1.3c1-3.1,5.9-1.7,8.8-3.2c5.2-2.8,0.9-12.8,6-15.6
		C491.1,243.3,479.2,225.2,476.3,243.3z"/>
	<path class="st1" d="M461.8,359.9c-0.1,1.2-0.3,2.5,0.2,3.6c0.4,1.1,1.3,2,1.7,3.1c1.1,3.2-3.9,6.3-6.2,3.9c-0.6-0.6-1-1.4-1.5-2.1
		c-1.7-2.2-4.8-2.8-7.5-2.1c-2.7,0.6-5,2.2-7.3,3.8c-0.6,0.4-1.2,0.9-1.4,1.6c-0.2,0.7,0.2,1.4,0.5,2c3.7,6.9,4.6,15.2,2.6,22.7
		c3.5-0.9,6.4,3.2,10,3.8c4.1,0.7,7.4-3.3,8.7-7.2c1.3-3.9,1.4-8.3,3.5-11.8c1.6-2.7,4.3-4.8,5-7.8c1-4.3-2.4-8.2-3.5-12.5
		c-1.5-6.4,2.1-12.7,0-18.9C461.3,344.2,462.4,354.4,461.8,359.9z"/>
	<path class="st1" d="M284.1,301.7c-1.1,2.8-3.3,5.4-6.2,6.2c-2.9,0.7-6.5-1.1-6.9-4.1c-0.5-4.5,5.7-6.8,10-5.6
		c0.4,1.9,1.2,3.8,2.3,5.5"/>
	<path class="st1" d="M328.8,307.1c-5.1,2-7.7-1.1-6.3-6.6c1.6-6.4,3.4-12.9,5.4-19.2c1.8-5.9,16.2-13.7,19.9-5.6
		c2.2,4.8-9.1,16.3-11.5,19.8c-1.5,2.3-4.9,10.5-7.3,11.5C328.9,307,328.8,307,328.8,307.1z"/>
	<path class="st1" d="M262.2,341.6c-4.1,1.2-7.6,4.4-9.3,8.4c4.6,3.2,7.2,9.2,6.3,14.7c-0.8,5.6-4.9,10.5-10.3,12.3
		c-1.9-0.2-3.3-2.1-3.5-4.1c-0.1-1.9,0.7-3.8,1.7-5.5c1.7-3.1,3.8-6,4.5-9.5c0.7-3.4-0.4-7.6-3.6-9c3.5-2.7,7-5.5,10.5-8.2
		c0.6-0.4,1.3-0.9,1.9-0.6c0.6,0.3,0,1.6-0.5,1.1"/>
	<path class="st1" d="M226.2,438.7c-1.3-0.7-2.6-1.3-3.8-2c-1.6,1.2-3.2,2.5-4.8,3.7c-0.6,0.5-1.3,1-1.7,1.7c-0.6,1-0.6,2.3-0.2,3.4
		c1.2,3.6,6.4,5.2,9.4,2.7c3-2.4,2.6-7.8-0.7-9.8"/>
	<path class="st1" d="M141.5,352.5c-4.7-5.5-9.4-10.9-14.1-16.4c6.2-1.3,11.9-4.8,16-9.6c-4,0.4-7.5,2.7-10.9,4.9
		c-2.4,1.6-4.9,3.2-6.4,5.7s-1.4,6.1,0.9,7.9c2.1,0.8,3.4,2.9,4.6,4.7c1.2,1.9,2.7,3.8,4.8,4.5s5-1,4.6-3.2
		c-1.2-1.4-2.5-2.8-3.7-4.3"/>
	<path class="st1" d="M115.3,513.9c-0.8-2.1-4.1-1.7-5.4,0.1c-1.2,1.8-1,4.2-0.8,6.4c0.2,1.4,0.4,3,1.6,3.8c2.4,1.8,5.5-1.4,6.6-4.2
		c0.5-1.3,1.1-2.7,0.8-4.1c-0.2-1.4-1.5-2.7-2.9-2.5"/>
	<path class="st1" d="M69.7,518.5c0,3-1.2,6.4-4,7.5c-3.5,1.4-7.7-2.9-6.3-6.4c1.4-3.5,7.4-3.6,8.9-0.1"/>
	<path class="st1" d="M117.2,444.5c-1.3,2-3.4,3.4-5.7,4c1-2.3,2.1-4.5,3.1-6.8c0.5,1.3,1,2.7,1.4,4"/>
	<path class="st1" d="M105.4,519.5c0.3,2-2.3,3.7-4.1,2.7c-0.1-2.5,1.7-4.9,4-5.6c1,1,1.7,2.4,1.9,3.8c-1,0.1-1.9,0.1-2.9,0.2"/>
	<path class="st1" d="M243.3,578.5c1.3-1.7,2.3-3.7,2.8-5.8c-2.2-1.1-3.8-3.5-4.1-5.9c-1.5-1-3.4,0.6-4,2.3c-0.6,1.7-0.6,3.6-1.7,5
		c-0.5,0.6-1.2,1.1-1.5,1.8c-0.9,2,1.7,3.8,3.8,3.9c3.3,0,6.4-2.1,7.6-5.2"/>
	<path class="st1" d="M725.4,293.9c0.6,3.4-3.1,6.7-6.4,5.9s-5.2-5.1-3.6-8.2c1.6-3.1,6-4.1,8.9-2.3c0.1,1.9,0.2,3.8,0.3,5.6"/>
	<path class="st1" d="M668.2,280.6c0.3,0.7,0.3,1.6-0.3,1.9c-0.3,0.2-0.7,0.1-1,0.1c-2.6-0.3-10.3-7.1-11.6-6.6
		c4.4-1.5,9.8,0.6,12.7,4.1C668,280.3,668.1,280.4,668.2,280.6z"/>
	<path class="st2" d="M403.1,622.5c-4.7-0.3-9.4,0.1-13.9,1.2c0,2.7,0.1,5.4,0.1,8.2c5.3-1.4,10-4.7,13.3-9.1
		c-1.5-0.1-3-0.3-4.5-0.4"/>
	<path class="st2" d="M387.8,638.6c0.7,3,1.3,6.2,0.1,9s-5.2,4.5-7.5,2.4c-0.2-5.1,1.5-10.2,4.9-14c1.5,0.9,2.2,2.7,1.8,4.4"/>
	<path class="st2" d="M236.4,797.2c6.5,4.5,9.3,12.5,12.7,19.6c5,10.3,12.1,19.6,20.7,27.1c2.6-7.5-1.1-15.8-6-22.2
		c-4.9-6.3-11.1-11.8-14.4-19.1c-1.7-3.7-2.6-7.7-4.8-11.1C238.1,781.5,224.2,788.8,236.4,797.2z"/>
	<path class="st3" d="M736.9,307.2c3.2,3.4,0.9,8.9-1.6,12.9c-1.3,2.1-2.7,4.2-5,5c-2.3,0.8-5.4-0.7-5.2-3.1
		c-2.3,8.9-0.4,18.8,5.2,26.1c3.3-11.1,7.6-23.4,17.9-28.8c1.8-0.9,3.6-1.6,5.2-2.8c2.6-2,5.8-5.4,8.3-3.3c-0.8-1.6-0.4-3.7,1-4.8
		c0.8-0.6,1.7-1,2.5-1.5c3-2.1,3-6.4,2.7-10.1c-0.4-2-3.7-1.1-4.7,0.7c-5.8,11.2-5.3-1.2-11.9,0.1
		C748.8,298.1,742.3,313.1,736.9,307.2z"/>
	<path class="st2" d="M196.2,682.1c-1.7,0.4-3.3,0.9-5,1.3c-0.8,2.8,1.4,6.1,4.3,6.4c2.9,0.3,5.7-2.4,5.6-5.3c-2,0.2-4-0.1-5.8-1"/>
	<path class="st2" d="M186.9,677.2c-1.8,2.4-4.7,5.1-7.4,3.6c-2.4-1.3-1.7-5.4,0.7-6.5c2.4-1.2,5.5,0.2,7.1,2.3
		c-0.6,0.6-1.3,1.2-1.9,1.8"/>
	<path class="st1" d="M649.4,278c1.5,2.9,1.6,6.5,0.4,9.6c-0.5,0.4-1.3,0.2-1.8-0.3c-0.4-0.5-0.5-1.2-0.6-1.9c-0.3-2-0.6-4-0.9-6
		c1.3-0.6,3.1-1.1,3.8,0.1"/>
	<path class="st1" d="M736.7,289.5c-1.1,1.3-2.3,2.5-3.4,3.8c-1-0.9-1.6-2.5-1-3.7c0.6-1.3,2.4-1.8,3.4-0.9c1,0.9,0.2,3.1-1.2,2.9"
		/>
	<path class="st1" d="M770.3,290.5c-0.9,0.1-1.8,0.2-2.5,0.7s-1.2,1.5-0.9,2.3c0.3,0.7,1.1,1,1.8,1c2.2,0.1,4-2.8,2.9-4.7
		c-0.7,0-1.3,0.2-2,0.5c-0.3,0.1-0.5,0.3-0.5,0.6c0,0.3,0.5,0.4,0.5,0.2"/>
	<path class="st3" d="M758.9,281.8c-1.7-0.2-3.3-0.4-5-0.7c-0.1,1.6,0.7,3.3,2.2,3.7c1.5,0.4,3.2-1.5,2.4-2.8"/>
	<path class="st3" d="M697.2,362.6c0.4,2.6,4.4,3.7,6.1,1.6c-0.9-0.6-1.5-1.4-2.2-2.2c-0.7-0.7-1.7-1.4-2.7-1.3
		c-1,0.1-1.9,1.3-1.4,2.2c0.6,0,1.2-0.3,1.5-0.8"/>
	<path class="st1" d="M736.9,362.7c-1.2,0-2.4,0-3.4,0.5s-1.8,1.8-1.4,2.9c1.1,0.1,2.2,0.6,3.1,1.3c0.3,0.3,0.6,0.6,1.1,0.7
		c1.1,0.2,1.8-1.3,1.5-2.5c-0.2-1.1-0.8-2.3-0.4-3.4c-1-0.3-2.1-0.2-3,0.4"/>
	<path class="st1" d="M718.7,320.7c0,3.4-4.1,6.1-7.2,4.8c-0.3-2.5,0-5.2,1.4-7.2c1.5-2,4.6-2.9,6.6-1.5c2,1.5,1.4,5.5-1.1,5.7"/>
	<path class="st1" d="M710.4,334.7c8.5-8.7-13.5-6.7-6.7,0.9c1.4,1.6,4.2,1.4,5.8-0.1C709.9,335.2,710.2,334.9,710.4,334.7z"/>
</g>
<g>
	
		<image style="overflow:visible;opacity:0.45;" width="273" height="463" xlink:href="C380ACE46E189D59.png"  transform="matrix(1 0 0 1 125.4488 348.0511)">
	</image>
	<g>
		<g>
			<g>
				<g>
					<path class="st4" d="M368.7,611.9c-14.8-26-44.2-104,17.7-250.9"/>
					<g>
						<path class="st5" d="M375.4,622c-1.4-5.9-2.2-13.8-1.4-19.5l-6.1,8.1l-9.8,2.3C363.7,614.4,370.5,618.4,375.4,622z"/>
					</g>
					<g>
						<path class="st5" d="M391.2,349.9c-0.3,6.1,0.3,13.9,2.1,19.5l-7.4-6.9l-10.1-0.6C380.9,359.4,387,354.3,391.2,349.9z"/>
					</g>
				</g>
			</g>
			<g>
				<g>
					<path class="st4" d="M210.2,799.5c-24.2-12.2-79.8-50.8-79.8-147.1c0-7-3-13,5-30c8-17,14-76.9,14-76.9s-5.4-104.3-9.4-142.9"
						/>
					<g>
						<path class="st5" d="M221.3,804.3c-4.3-4.2-9.3-10.3-11.8-15.6l-0.7,10.1l-7,7.3C207.3,804.4,215.2,804,221.3,804.3z"/>
					</g>
					<g>
						<path class="st5" d="M138.3,390.6c2.8,5.4,7.3,11.9,11.6,15.7l-9.9-2.2l-9,4.6C134.3,404,137,396.5,138.3,390.6z"/>
					</g>
				</g>
			</g>
			<g>
				<g>
					<path class="st4" d="M265.6,470.9c-15.1,18.2-49.5,58.1-75.3,75.6c-34,23-66.9,78.9-58,113.9c5.4,21.1,19.5,26.9,29.9,28.2"/>
					<g>
						<path class="st5" d="M273.2,461.6c-5.2,3.1-12.5,6.3-18.2,7.2l9.5,3.3l5.2,8.7C269.6,475,271.3,467.3,273.2,461.6z"/>
					</g>
					<g>
						<path class="st5" d="M174.3,688.4c-5.7,2.1-12.7,5.8-17.1,9.6l3.4-9.5l-3.5-9.5C161.6,682.8,168.6,686.3,174.3,688.4z"/>
					</g>
				</g>
			</g>
		</g>
	</g>
</g>
<g>
	<g>
		<text transform="matrix(1 0 0 1 43.7581 47.538)" class="st6 st7 st8">Breeding area</text>
	</g>
	<g>
		<text transform="matrix(1 0 0 1 43.7581 85.2685)" class="st6 st7 st8">Non-migratory area</text>
	</g>
	<g>
		<text transform="matrix(1 0 0 1 43.7581 122.997)" class="st6 st7 st8">Wintering area</text>
	</g>
	<g>
		<rect x="6.3" y="25.6" class="st1" width="23.3" height="23.3"/>
		<rect x="6.3" y="64" class="st3" width="23.3" height="23.3"/>
		<rect x="6.3" y="102.3" class="st2" width="23.3" height="23.3"/>
	</g>
</g>
<g>
	<text transform="matrix(1 0 0 1 367.9082 235.4214)" class="st6 st7 st8 st9">RUSSIA</text>
</g>
<g>
	<text transform="matrix(1 0 0 1 365.5498 574.5728)" class="st6 st7 st8 st9">DPRK</text>
</g>
<g>
	<text transform="matrix(1 0 0 1 187.2894 328.9373)"><tspan x="0" y="0" class="st6 st10 st11">Zhalong National</tspan><tspan x="0" y="26.4" class="st6 st10 st11">Nature Reserve</tspan></text>
</g>
<g>
	<text transform="matrix(1 0 0 1 405.7148 685.521)" class="st6 st7 st8 st9">ROK</text>
</g>
<g>
	<text transform="matrix(1 0 0 1 695.7158 593.9468)" class="st6 st7 st8 st9">JAPAN</text>
</g>
<g>
	<text transform="matrix(1 0 0 1 191.0328 424.1773)" class="st6 st10 st12 st13">CHINA</text>
</g>
<g>
	<g>
		<line class="st14" x1="624.7" y1="842.3" x2="683.2" y2="842.3"/>
		<line class="st15" x1="683.2" y1="842.3" x2="742" y2="842.3"/>
	</g>
	<text transform="matrix(1 0 0 1 647.4639 833.9648)" class="st6 st7 st11">200 km</text>
</g>
<rect x="280.8" y="817.2" class="st16" width="295.6" height="99.8"/>
<text transform="matrix(1 0 0 1 280.8091 835.4517)"><tspan x="0" y="0" class="st6 st7 st8">In Yancheng wetland               </tspan><tspan x="0" y="28.8" class="st6 st7 st8">red-crowned crane arrives </tspan><tspan x="0" y="57.6" class="st6 st7 st8">each year for the winter</tspan></text>
<g>
	<rect x="292.7" y="30" class="st16" width="306.3" height="194"/>
	<text transform="matrix(1 0 0 1 292.7151 48.2899)"><tspan x="0" y="0" class="st6 st7 st8">The red-crowned crane is </tspan><tspan x="0" y="28.8" class="st6 st7 st8">mainly distributed in China, </tspan><tspan x="0" y="57.6" class="st6 st7 st8">Japan, ROK, DPRK, </tspan><tspan x="0" y="86.4" class="st6 st7 st8">Mongolia, and Russia.</tspan></text>
</g>
<rect x="249.2" y="364.6" class="st6" width="6.4" height="6.4"/>
</svg>
