<?xml version="1.0" encoding="utf-8"?>
<!-- Generator: Adobe Illustrator 26.5.0, SVG Export Plug-In . SVG Version: 6.00 Build 0)  -->
<svg version="1.1" id="Capa_1" xmlns="http://www.w3.org/2000/svg" xmlns:xlink="http://www.w3.org/1999/xlink" x="0px" y="0px"
	 viewBox="0 0 1920 543.5" style="enable-background:new 0 0 1920 543.5;" xml:space="preserve">
<style type="text/css">
	.st0{fill:#251E1C;}
	.st1{font-family:'Roboto-Regular';}
	.st2{font-size:28px;}
	.st3{font-family:'Roboto-Bold';}
	.st4{fill:none;stroke:#262324;stroke-miterlimit:10;}
	.st5{fill:#262324;}
	.st6{fill:none;}
	.st7{fill:#FFFFFF;}
</style>
<image style="overflow:visible;" width="1820" height="499" xlink:href="467EB776FE90A4AB.png"  transform="matrix(1 0 0 1 50.2606 50.0795)">
</image>
<g>
	<text transform="matrix(1 0 0 1 710.0168 114.2403)"><tspan x="0" y="0" class="st0 st1 st2">Standard measurements of the culmen (from the distal tip of the bill to the feather line)</tspan><tspan x="444.7" y="33.6" class="st0 st3 st2">13.5 to 17.7 cm</tspan></text>
</g>
<g>
	<g>
		<line class="st4" x1="675.2" y1="163.7" x2="1839.7" y2="163.7"/>
		<g>
			<path class="st5" d="M666.1,163.7c4.3,1.6,9.5,4.3,12.8,7.1l-2.6-7.1l2.6-7.1C675.7,159.4,670.4,162.1,666.1,163.7z"/>
		</g>
		<g>
			<path class="st5" d="M1848.7,163.7c-4.3,1.6-9.5,4.3-12.8,7.1l2.6-7.1l-2.6-7.1C1839.2,159.4,1844.4,162.1,1848.7,163.7z"/>
		</g>
	</g>
</g>
<g>
	<rect x="123.5" y="338.4" class="st6" width="224.3" height="152.7"/>
	<text transform="matrix(1 0 0 1 153.8929 359.6934)"><tspan x="0" y="0" class="st0 st1 st2">Red crowned </tspan><tspan x="5.7" y="33.6" class="st0 st1 st2">cranes have </tspan><tspan x="-25.4" y="67.2" class="st0 st1 st2">small, round, and </tspan><tspan x="17.7" y="100.8" class="st0 st1 st2">dark eyes.</tspan></text>
</g>
<text transform="matrix(1 0 0 1 906.6639 358.3797)" class="st7 st3 st2">Mandible</text>
<text transform="matrix(1 0 0 1 581.6048 332.2366)" class="st7 st3 st2">Maxilia</text>
<g>
	<text transform="matrix(1 0 0 1 489.4026 370.9837)" class="st7 st3 st2">Jugal bone</text>
</g>
<text transform="matrix(1 0 0 1 812.7967 274.1107)" class="st7 st3 st2">Nasal aperture</text>
<path class="st4" d="M687.7,7.9c0,141-475.3,3.7-475.3,155.8"/>
</svg>
