<?xml version="1.0" encoding="utf-8"?>
<!-- Generator: Adobe Illustrator 26.5.0, SVG Export Plug-In . SVG Version: 6.00 Build 0)  -->
<svg version="1.1" id="Layer_1" xmlns="http://www.w3.org/2000/svg" xmlns:xlink="http://www.w3.org/1999/xlink" x="0px" y="0px"
	 viewBox="0 0 800 269.9" style="enable-background:new 0 0 800 269.9;" xml:space="preserve">
<style type="text/css">
	.st0{fill:#251E1C;}
	.st1{font-family:'Roboto-Regular';}
	.st2{font-size:24px;}
	.st3{fill:none;stroke:#262324;stroke-miterlimit:10;}
	.st4{fill:none;}
	.st5{font-size:22px;}
	.st6{fill:#262324;}
</style>
<g>
	<g>
		<text transform="matrix(1 0 0 1 47.7971 51.4378)"><tspan x="0" y="0" class="st0 st1 st2">Life-long</tspan><tspan x="0" y="28.8" class="st0 st1 st2">monogamous</tspan><tspan x="0" y="57.6" class="st0 st1 st2">in nature</tspan></text>
	</g>
	<g>
		<path d="M36.3,41c0,0.5,0,1,0,1.6c0,0,0,0.1-0.1,0.1c-0.1,1-0.4,1.9-0.8,2.8c-0.9,2.1-2.2,3.8-3.8,5.4c-2.9,3-6.2,5.5-9.7,7.7
			c-0.4,0.2-0.7,0.2-1.1,0c-3-1.8-5.9-3.9-8.5-6.4c-1.6-1.5-3.1-3.2-4.2-5.1c-0.8-1.4-1.5-2.9-1.6-4.6c-0.1-2.2,0.4-4.3,1.8-6.1
			c1.4-1.9,3.2-3,5.5-3.3c2.8-0.3,5,0.8,6.8,2.9c0.3,0.3,0.5,0.7,0.8,1c0.4-0.5,0.8-1.1,1.2-1.5c2.3-2.3,5-3.1,8.1-2
			c2.7,1,4.3,3,5.2,5.7C36.1,39.8,36.2,40.4,36.3,41z"/>
	</g>
</g>
<g>
	<g>
		<text transform="matrix(1 0 0 1 617.3181 55.5688)" class="st0 st1 st2">Weight:</text>
	</g>
	<g>
		<text transform="matrix(1 0 0 1 617.3181 87.0844)" class="st0 st1 st2">7.5 kg to 10.5 kg</text>
	</g>
	<g>
		<path d="M592.5,28.5c0.4,0,0.9,0,1.3,0c0.1,0,0.3,0.1,0.4,0.1c4.3,0.8,6.3,5.8,3.6,9.4c-0.1,0.2-0.3,0.4-0.5,0.6
			c0.2,0,0.3,0,0.4,0c1.7,0,3.4,0,5.2,0c1,0,1.7,0.5,1.8,1.6c0.1,0.4,0.2,0.9,0.2,1.3c0.5,2.9,1,5.8,1.6,8.7c0.5,2.8,1,5.6,1.5,8.5
			c0.1,0.4,0.2,0.8,0.1,1.2c-0.1,0.9-0.8,1.5-1.8,1.5c-8.4,0-16.8,0-25.2,0c-0.5,0-1,0-1.5,0c-1,0-1.8-0.9-1.6-1.9
			c0.5-3.1,1.1-6.2,1.7-9.3c0.6-3.3,1.2-6.6,1.8-9.8c0.2-1.2,0.8-1.7,2-1.7c1.7,0,3.4,0,5.1,0c0.1,0,0.2,0,0.4,0
			c-0.1-0.1-0.1-0.2-0.2-0.2c-0.9-1-1.4-2.1-1.5-3.4c-0.3-2.6,1.3-5.2,3.8-6C591.5,28.7,592,28.6,592.5,28.5z M598.6,51.4
			c0,1.1,0.2,0.9-0.8,1.4c-0.1,0.1-0.3,0.1-0.4,0.1c-1.1,0.3-2.1-0.2-2.5-1.3c-0.3-0.8-0.3-1.6-0.1-2.4c0.1-0.5,0.4-0.9,0.9-1.1
			c0.7-0.4,2.1-0.5,2.7,0.5c0.3,0.4,0.7,0.4,1.1,0.2c0.3-0.3,0.4-0.7,0.1-1.1c-0.2-0.2-0.4-0.5-0.7-0.6c-0.8-0.5-1.6-0.5-2.5-0.5
			c-1.1,0.1-2,0.6-2.6,1.5c-0.6,0.9-0.7,1.9-0.6,2.9c0.2,1.3,0.7,2.4,2,3c1.7,0.7,3.2,0.4,4.7-0.6c0.1-0.1,0.2-0.3,0.2-0.5
			c0-0.7,0-1.4,0-2.1c0-0.4-0.2-0.5-0.5-0.6c-0.7,0-1.3,0-2,0c-0.4,0-0.7,0.2-0.7,0.6c0,0.4,0.3,0.6,0.7,0.6
			C597.9,51.4,598.3,51.4,598.6,51.4z M590.2,49.6c0.3-0.3,0.6-0.6,0.9-0.9c0.4-0.4,0.8-0.8,1.1-1.2c0.3-0.3,0.2-0.6-0.1-0.8
			c-0.3-0.2-1.1,0-1.4,0.2c-0.8,0.9-1.7,1.8-2.5,2.7c-0.1,0.1-0.2,0.2-0.2,0.3c-0.1-0.8-0.1-1.6-0.1-2.3c0-0.2,0-0.4-0.1-0.6
			c-0.1-0.3-0.5-0.4-0.8-0.3c-0.3,0.1-0.6,0.4-0.6,0.8c0,1.9,0,3.9,0,5.8c0,0.2,0.1,0.5,0.2,0.6c0.2,0.2,0.5,0.3,0.8,0.2
			c0.3-0.1,0.5-0.4,0.5-0.8c0-0.4,0-0.8,0-1.2c0-0.1,0-0.2,0.1-0.3c0.4-0.4,0.8-0.8,1.2-1.1c0.5,0.9,1,1.8,1.5,2.6
			c0.6,1,0.3,0.8,1.5,0.8c0.4,0,0.6-0.4,0.4-0.8c-0.2-0.3-0.3-0.5-0.5-0.8C591.5,51.6,590.8,50.6,590.2,49.6z M590.5,34.2
			c-0.1,1.4,1,2.7,2.4,2.8c1.3,0.1,2.6-0.9,2.7-2.2c0.2-1.6-1-2.9-2.5-3C591.9,31.7,590.6,32.7,590.5,34.2z"/>
	</g>
</g>
<g>
	<text transform="matrix(1 0 0 1 262.3855 53.1761)" class="st0 st1 st2">Life span:</text>
</g>
<g>
	<text transform="matrix(1 0 0 1 277.3855 86.8558)"><tspan x="0" y="0" class="st0 st1 st2">30 years</tspan><tspan x="0" y="24" class="st0 st1 st2">into wild</tspan></text>
</g>
<g>
	<text transform="matrix(1 0 0 1 411.3855 87.4672)"><tspan x="0" y="0" class="st0 st1 st2">60 years</tspan><tspan x="0" y="24" class="st0 st1 st2">in captivity</tspan></text>
</g>
<rect x="263" y="75.7" class="st0" width="6.9" height="6.9"/>
<rect x="397" y="78.7" class="st0" width="6.9" height="6.9"/>
<g>
	<path d="M227.2,32.5c5.6,0,11.1,0,16.7,0c0,0.3,0,0.6,0,0.9c0,1,0,2,0,3.1c0,0.8-0.4,1.5-0.9,2.1c-1.8,2.1-3.6,4.1-5.4,6.2
		c-0.4,0.5-0.4,0.5,0,1c1.7,2,3.5,3.9,5.2,5.9c0.7,0.8,1.1,1.8,1.1,2.9c0,1,0,1.9,0,2.9c0,0.4-0.1,0.5-0.5,0.5c-3.9,0-7.8,0-11.6,0
		c-1.4,0-2.8,0-4.2,0c-0.2,0-0.3,0-0.5,0c0-0.6,0-1.1,0-1.7c0-0.8,0-1.6,0-2.4c0-0.8,0.4-1.5,0.9-2.1c1.8-2,3.6-4,5.4-6.1
		c0.4-0.4,0.4-0.5,0-0.9c-1.8-2-3.5-4-5.3-6c-0.8-0.8-1.1-1.8-1.1-2.9C227.2,34.7,227.2,33.6,227.2,32.5z M241.1,55
		c0.1-0.6,0-1.2-0.4-1.6c-0.5-0.5-1-1.1-1.5-1.7c-1.9-2.2-5.2-2.2-7.2-0.1c-0.5,0.6-1,1.2-1.6,1.7c-0.5,0.5-0.4,1.1-0.4,1.7
		C233.7,55,237.4,55,241.1,55z M230.8,37.1c0,0.1,0,0.1-0.1,0.2c1.6,1.8,3.2,3.6,4.8,5.4c1.5-1.7,2.9-3.3,4.3-5c-0.2,0-0.3,0-0.4,0
		c-2,0.3-4,0.3-6-0.2C232.6,37.4,231.7,37.3,230.8,37.1z M235.1,45.4c0.1,0.2,0.1,0.4,0.2,0.5c0.1,0.1,0.4,0,0.4-0.1
		c0-0.3,0-0.6,0-0.9c0,0-0.3-0.1-0.4-0.1C235.3,45,235.2,45.2,235.1,45.4z M235.9,47.4c-0.1-0.2-0.1-0.4-0.2-0.5
		c-0.1-0.1-0.4,0-0.4,0c0,0.3,0,0.6,0,0.9c0,0,0.3,0.1,0.4,0C235.8,47.8,235.8,47.6,235.9,47.4z"/>
	<path d="M225.7,31.8c0-0.6,0-1.1,0-1.7c6.5,0,13,0,19.6,0c0,0.6,0,1.1,0,1.7C238.8,31.8,232.3,31.8,225.7,31.8z"/>
	<path d="M225.7,60.1c0-0.6,0-1.1,0-1.7c6.5,0,13,0,19.6,0c0,0.6,0,1.1,0,1.7C238.8,60.1,232.3,60.1,225.7,60.1z"/>
</g>
<g>
	<g>
		<g>
			<rect x="278" y="120.6" width="61.1" height="3.3"/>
			<rect x="412" y="120" width="122.2" height="3.3"/>
		</g>
	</g>
</g>
<line class="st3" x1="206.9" y1="28.1" x2="206.9" y2="123.3"/>
<line class="st3" x1="560.8" y1="28.1" x2="560.8" y2="123.3"/>
<g>
	<rect x="622.2" y="208.9" class="st4" width="177.2" height="54.8"/>
	<text transform="matrix(1 0 0 1 622.1733 225.6383)"><tspan x="0" y="0" class="st0 st1 st5">Weight is similar </tspan><tspan x="0" y="26.4" class="st0 st1 st5">to an adult pug</tspan></text>
</g>
<g id="Mzr0No_1_">
	<g>
		<path d="M713.6,148.1c1,0.2,1.9,0.3,2.7,0.6c1.2,0.4,2,1.2,2.5,2.3c0.1,0.3,0.5,0.6,0.6,1c0.3,0.7,0.6,1.4,0.9,2
			c0,0.1,0.1,0.2,0.1,0.2c0.6,0.7,0.6,1.5,0.3,2.3c-0.1,0.1-0.1,0.3-0.1,0.4c0.1,1.6-0.8,2.5-2.2,3.1c-0.7,0.3-1.3,0.8-1.9,1.3
			c-0.4,0.4-1,0.7-1.6,0.9c-0.4,0.2-0.6,0.4-0.7,0.8c-0.5,2-1.1,4.1-1.7,6.1c-0.6,2-1.6,3.7-3.2,5c-0.1,0.1-0.2,0.3-0.3,0.5
			c-0.6,2.9-1.1,5.8-1.1,8.8c0,0.4,0.1,0.8,0.2,1.2c0.1,0.5,0.4,0.9,0.9,1.2c0.9,0.5,1.4,1.3,1.4,2.4c-1,0-1.9,0-2.9,0
			c-0.8,0-1.5-0.4-1.9-1.1c-0.2-0.3-0.4-0.3-0.7-0.3c-0.7,0-1.5,0-2.2-0.1c-1.5-0.3-1.9-1.5-2.1-2.7c-0.1-0.6-0.1-1.2-0.4-1.8
			c-0.2-0.4,0-1,0-1.6c0-1.4,0-2.8,0-4.3c-0.6-0.1-1.2-0.1-1.8-0.2c-3.5-0.3-7-0.9-10.4-1.7c-0.3-0.1-0.6,0-0.8,0.2
			c-1,1.1-2.1,2.2-3.1,3.4c-1.1,1.4-1.5,3.1-1.2,4.9c0.1,0.5,0.3,0.9,0.7,1.1c0.9,0.5,1.1,1.4,1.4,2.4c0,0.1-0.1,0.3-0.2,0.3
			c-1.1,0.3-2.2,0.4-3.2-0.1c-0.8-0.4-1.4-1.2-1.6-2.2c-0.2-1.4-0.2-2.8-0.3-4.2c0-0.5,0-0.9,0-1.4c0,0-0.1,0-0.1,0
			c-0.1,0.1-0.2,0.2-0.3,0.3c-1.3,1.6-1.9,3.3-1.6,5.4c0.1,0.3,0.3,0.7,0.5,0.9c0.9,0.6,1.2,1.4,1.4,2.4c0,0.1-0.1,0.3-0.2,0.4
			c-1,0.4-2,0.4-2.9,0c-1.2-0.5-1.8-1.5-1.9-2.7c-0.1-1.3-0.1-2.5-0.1-3.8c0-0.6-0.1-1.3-0.2-1.9c-0.1-0.5,0-1,0.3-1.4
			c1.9-1.9,2.3-4.4,2.8-6.9c0.4-2,0.8-3.9,1.2-5.8c0.3-1.2,0.9-2.3,1.7-3.3c0.1-0.2,0.2-0.4,0.3-0.7c0.5-2.7,2.9-4.8,5.6-4.8
			c1.6,0,2.4,0.7,2.6,2.4c1.4,0.1,2.7,0.2,4.1,0.3c1.6,0.1,3.2,0.1,4.8,0.1c0.3,0,0.6-0.2,0.8-0.3c0.7-0.6,1.5-1.2,2.4-1.4
			c0.1,0,0.2,0,0.2-0.1c0.8-1.1,2.3-1.3,3.1-2.5c0.6-0.9,1.2-1.8,1.9-2.6c0.7-0.9,1.5-1.7,2.4-2.6c0,0.1,0,0,0-0.1
			c-0.3-0.8,0-1.2,0.8-1.4c1-0.2,2-0.5,3-0.8C713.3,147.2,713.4,147.2,713.6,148.1z M704.3,178.5c-0.1,0-0.2,0-0.2,0
			c-0.1,1.3-0.2,2.5-0.2,3.8c0,0.5,0.2,1,0.4,1.4c0.1,0.2,0.3,0.3,0.5,0.5c0.1,0,0.1-0.1,0.2-0.1c-0.7-0.5-0.5-1.2-0.5-1.9
			C704.4,180.9,704.4,179.7,704.3,178.5z"/>
	</g>
</g>
<g>
	<g>
		<line class="st3" x1="696.1" y1="107.8" x2="696.1" y2="142.4"/>
		<g>
			<path class="st6" d="M696.1,148.5c-1.1-2.8-2.9-6.4-4.8-8.5l4.8,1.7l4.8-1.7C699,142.1,697.2,145.6,696.1,148.5z"/>
		</g>
	</g>
</g>
</svg>
