<?xml version="1.0" encoding="utf-8"?>
<!-- Generator: Adobe Illustrator 26.5.0, SVG Export Plug-In . SVG Version: 6.00 Build 0)  -->
<svg version="1.1" id="Layer_1" xmlns="http://www.w3.org/2000/svg" xmlns:xlink="http://www.w3.org/1999/xlink" x="0px" y="0px"
	 viewBox="0 0 800 229.4" style="enable-background:new 0 0 800 229.4;" xml:space="preserve">
<style type="text/css">
	@import url('https://fonts.googleapis.com/css?family=Roboto:300,400,700');
	.st0{fill:#231815;}
	.st1{font-family:'Roboto';font-weight: 700;}
	.st2{font-size:31.5127px;}
	.st3{font-size:23.6345px;}
	.st4{fill:#A39B8C;}
	.st5{fill:#00ADEE;}
	.st6{fill:#FFFFFF;}
	.st7{font-family:'Roboto';font-weight: 300;}
	.st8{font-size:21.4179px;}
	.st9{fill:none;stroke:#221E1F;stroke-width:0.4128;stroke-miterlimit:10;}
	.st10{fill:#221E1F;}
</style>
<g>
	<g>
		<text transform="matrix(1 0 0 1 268.6206 38.958)" class="st0 st1 st2">EXTINCTION RISK</text>
		<text transform="matrix(1 0 0 1 77.9189 73.2271)" class="st0 st1 st3">International Union for Conservation of Nature classification</text>
	</g>
	<path class="st4" d="M224.5,161.5h-46.1c-1.5,0-2.7-1.2-2.7-2.7v-35.2c0-1.5,1.2-2.7,2.7-2.7h46.1c1.5,0,2.7,1.2,2.7,2.7v35.2
		C227.2,160.4,226,161.5,224.5,161.5z"/>
	<path class="st4" d="M290,161.5h-46.1c-1.5,0-2.7-1.2-2.7-2.7v-35.2c0-1.5,1.2-2.7,2.7-2.7H290c1.5,0,2.7,1.2,2.7,2.7v35.2
		C292.7,160.4,291.5,161.5,290,161.5z"/>
	<path class="st5" d="M355.5,161.5h-46.1c-1.5,0-2.7-1.2-2.7-2.7v-35.2c0-1.5,1.2-2.7,2.7-2.7h46.1c1.5,0,2.7,1.2,2.7,2.7v35.2
		C358.2,160.4,356.9,161.5,355.5,161.5z"/>
	<path class="st4" d="M421,161.5h-46.1c-1.5,0-2.7-1.2-2.7-2.7v-35.2c0-1.5,1.2-2.7,2.7-2.7H421c1.5,0,2.7,1.2,2.7,2.7v35.2
		C423.7,160.4,422.5,161.5,421,161.5z"/>
	<path class="st4" d="M486.5,161.5h-46.1c-1.5,0-2.7-1.2-2.7-2.7v-35.2c0-1.5,1.2-2.7,2.7-2.7h46.1c1.5,0,2.7,1.2,2.7,2.7v35.2
		C489.2,160.4,488,161.5,486.5,161.5z"/>
	<path class="st4" d="M552,161.5h-46.1c-1.5,0-2.7-1.2-2.7-2.7v-35.2c0-1.5,1.2-2.7,2.7-2.7H552c1.5,0,2.7,1.2,2.7,2.7v35.2
		C554.6,160.4,553.5,161.5,552,161.5z"/>
	<path class="st4" d="M617.5,161.5h-46.1c-1.5,0-2.7-1.2-2.7-2.7v-35.2c0-1.5,1.2-2.7,2.7-2.7h46.1c1.5,0,2.7,1.2,2.7,2.7v35.2
		C620.2,160.4,619,161.5,617.5,161.5z"/>
	<text transform="matrix(1 0 0 1 581.5488 152.125)" class="st6 st1 st3">EX</text>
	<text transform="matrix(1 0 0 1 510.1064 152.125)" class="st6 st1 st3">EW</text>
	<text transform="matrix(1 0 0 1 446.5469 152.125)" class="st6 st1 st3">CR</text>
	<g>
		<text transform="matrix(1 0 0 1 381.5645 152.125)" class="st6 st1 st3">EN</text>
	</g>
	<g>
		<text transform="matrix(1 0 0 1 315.7817 152.125)" class="st6 st1 st3">VU</text>
	</g>
	<text transform="matrix(1 0 0 1 250.3643 152.125)" class="st6 st1 st3">NT</text>
	<text transform="matrix(1 0 0 1 186.6216 152.125)" class="st6 st1 st3">LC</text>
	<text transform="matrix(1 0 0 1 480.79 105.5972)" class="st0 st7 st8">Most risk</text>
	<g>
		<g>
			<line class="st9" x1="575.2" y1="99.8" x2="607.4" y2="99.8"/>
			<g>
				<path class="st10" d="M605.1,101.5c-0.1-0.1,0-0.2,0.1-0.2l2.2-1.4l-2.2-1.4c-0.1-0.1-0.1-0.2-0.1-0.2c0.1-0.1,0.2-0.1,0.2-0.1
					l2.4,1.6c0.1,0,0.1,0.1,0.1,0.2c0,0.1,0,0.1-0.1,0.2l-2.4,1.6h-0.1C605.1,101.5,605.1,101.5,605.1,101.5z"/>
			</g>
		</g>
	</g>
	<text transform="matrix(1 0 0 1 220.4551 105.5972)" class="st0 st7 st8">Less risk</text>
	<text transform="matrix(1 0 0 1 175.6128 186.0625)" class="st0 st7 st8">Least</text>
	<text transform="matrix(1 0 0 1 175.6128 209.1289)" class="st0 st7 st8">concern</text>
	<text transform="matrix(1 0 0 1 555.6084 186.0625)" class="st0 st7 st8">Extinct</text>
	<g>
		<g>
			<line class="st9" x1="213.3" y1="99.8" x2="181.1" y2="99.8"/>
			<g>
				<path class="st10" d="M183.5,98.2c0.1,0.1,0,0.2-0.1,0.2l-2.2,1.4l2.2,1.4c0.1,0.1,0.1,0.2,0.1,0.2c0,0.1-0.2,0.1-0.2,0.1
					l-2.4-1.6c-0.1,0-0.1-0.1-0.1-0.2c0-0.1,0-0.1,0.1-0.2l2.4-1.6h0.1C183.5,98.1,183.5,98.2,183.5,98.2z"/>
			</g>
		</g>
	</g>
	<g>
		<g>
			<text transform="matrix(1 0 0 1 270.6455 211.043)" class="st0 st1 st3">Vulnerable</text>
		</g>
		<polygon class="st0" points="341.7,185.8 314.1,185.8 327.9,172.1 		"/>
	</g>
</g>
</svg>
