<?xml version="1.0" encoding="utf-8"?>
<!-- Generator: Adobe Illustrator 24.3.2, SVG Export Plug-In . SVG Version: 6.00 Build 0)  -->
<svg version="1.1" id="Layer_1" xmlns="http://www.w3.org/2000/svg" xmlns:xlink="http://www.w3.org/1999/xlink" x="0px" y="0px"
	 viewBox="0 0 800 300" style="enable-background:new 0 0 800 300;" xml:space="preserve">
<style type="text/css">
	.st0{fill:#231815;}
	.st1{font-family:'Roboto-Bold';}
	.st2{font-size:38.2545px;}
	.st3{font-size:28.6908px;}
	.st4{fill:#A39B8C;}
	.st5{fill:#00ADEE;}
	.st6{fill:#FFFFFF;}
	.st7{font-family:'Roboto-Regular';}
	.st8{font-size:26px;}
	.st9{fill:none;stroke:#221E1F;stroke-width:0.4128;stroke-miterlimit:10;}
	.st10{fill:#221E1F;}
</style>
<g>
	<g>
		<text transform="matrix(1 0 0 1 240.9857 58.0247)"><tspan x="0" y="0" class="st0 st1 st2">EXTINCTION RISK</tspan><tspan x="-231.5" y="41.6" class="st0 st1 st3">International Union for Conservation of Nature classification</tspan></text>
	</g>
	<path class="st4" d="M187.4,206.8h-56c-1.8,0-3.3-1.5-3.3-3.3v-42.7c0-1.8,1.5-3.3,3.3-3.3h56c1.8,0,3.3,1.5,3.3,3.3v42.7
		C190.7,205.4,189.2,206.8,187.4,206.8z"/>
	<path class="st4" d="M266.9,206.8h-56c-1.8,0-3.3-1.5-3.3-3.3v-42.7c0-1.8,1.5-3.3,3.3-3.3h56c1.8,0,3.3,1.5,3.3,3.3v42.7
		C270.2,205.4,268.7,206.8,266.9,206.8z"/>
	<path class="st5" d="M346.4,206.8h-56c-1.8,0-3.3-1.5-3.3-3.3v-42.7c0-1.8,1.5-3.3,3.3-3.3h56c1.8,0,3.3,1.5,3.3,3.3v42.7
		C349.7,205.4,348.2,206.8,346.4,206.8z"/>
	<path class="st4" d="M426,206.8h-56c-1.8,0-3.3-1.5-3.3-3.3v-42.7c0-1.8,1.5-3.3,3.3-3.3h56c1.8,0,3.3,1.5,3.3,3.3v42.7
		C429.2,205.4,427.8,206.8,426,206.8z"/>
	<path class="st4" d="M505.5,206.8h-56c-1.8,0-3.3-1.5-3.3-3.3v-42.7c0-1.8,1.5-3.3,3.3-3.3h56c1.8,0,3.3,1.5,3.3,3.3v42.7
		C508.7,205.4,507.3,206.8,505.5,206.8z"/>
	<path class="st4" d="M585,206.8h-56c-1.8,0-3.3-1.5-3.3-3.3v-42.7c0-1.8,1.5-3.3,3.3-3.3h56c1.8,0,3.3,1.5,3.3,3.3v42.7
		C588.2,205.4,586.8,206.8,585,206.8z"/>
	<path class="st4" d="M664.5,206.8h-56c-1.8,0-3.3-1.5-3.3-3.3v-42.7c0-1.8,1.5-3.3,3.3-3.3h56c1.8,0,3.3,1.5,3.3,3.3v42.7
		C667.8,205.4,666.3,206.8,664.5,206.8z"/>
	<text transform="matrix(1 0 0 1 620.8613 195.4027)" class="st6 st1 st3">EX</text>
	<text transform="matrix(1 0 0 1 534.1346 195.4027)" class="st6 st1 st3">EW</text>
	<text transform="matrix(1 0 0 1 456.9772 195.4027)" class="st6 st1 st3">CR</text>
	<g>
		<text transform="matrix(1 0 0 1 378.0927 195.4027)" class="st6 st1 st3">EN</text>
	</g>
	<g>
		<text transform="matrix(1 0 0 1 298.2366 195.4027)" class="st6 st1 st3">VU</text>
	</g>
	<text transform="matrix(1 0 0 1 218.8238 195.4027)" class="st6 st1 st3">NT</text>
	<text transform="matrix(1 0 0 1 141.4442 195.4027)" class="st6 st1 st3">LC</text>
	<text transform="matrix(1 0 0 1 498.5461 138.9203)" class="st0 st7 st8">Most risk</text>
	<g>
		<g>
			<line class="st9" x1="613.2" y1="131.9" x2="652.2" y2="131.9"/>
			<g>
				<path class="st10" d="M649.4,133.9c-0.1-0.1,0-0.2,0.1-0.3l2.7-1.7l-2.7-1.7c-0.1-0.1-0.1-0.2-0.1-0.3c0.1-0.1,0.2-0.1,0.3-0.1
					l2.9,1.9c0.1,0,0.1,0.1,0.1,0.2c0,0.1,0,0.1-0.1,0.2l-2.9,1.9c0,0-0.1,0-0.1,0C649.5,134,649.4,134,649.4,133.9z"/>
			</g>
		</g>
	</g>
	<text transform="matrix(1 0 0 1 182.5161 138.9203)" class="st0 st7 st8">Less risk</text>
	<text transform="matrix(1 0 0 1 128.0801 236.6007)"><tspan x="0" y="0" class="st0 st7 st8">Least</tspan><tspan x="0" y="28" class="st0 st7 st8">concern</tspan></text>
	<text transform="matrix(1 0 0 1 589.3713 236.6007)" class="st0 st7 st8">Extinct</text>
	<g>
		<g>
			<line class="st9" x1="173.8" y1="131.9" x2="134.8" y2="131.9"/>
			<g>
				<path class="st10" d="M137.7,129.9c0.1,0.1,0,0.2-0.1,0.3l-2.7,1.7l2.7,1.7c0.1,0.1,0.1,0.2,0.1,0.3s-0.2,0.1-0.3,0.1l-2.9-1.9
					c-0.1,0-0.1-0.1-0.1-0.2c0-0.1,0-0.1,0.1-0.2l2.9-1.9c0,0,0.1,0,0.1,0C137.6,129.8,137.6,129.9,137.7,129.9z"/>
			</g>
		</g>
	</g>
	<g>
		<g>
			<text transform="matrix(1 0 0 1 243.4442 266.9254)" class="st0 st1 st3">Vulnerable</text>
		</g>
		<polygon class="st0" points="329.7,236.3 296.2,236.3 312.9,219.6 		"/>
	</g>
</g>
</svg>
